<svg id="Layer_1" data-name="Layer 1" xmlns="http://www.w3.org/2000/svg" xmlns:xlink="http://www.w3.org/1999/xlink" viewBox="0 0 152.79 52.31"><defs><style>.cls-1,.cls-64{fill:none;}.cls-2{clip-path:url(#clip-path);}.cls-3{clip-path:url(#clip-path-2);}.cls-4{clip-path:url(#clip-path-5);}.cls-5{fill:#ffab17;}.cls-6{clip-path:url(#clip-path-6);}.cls-7{clip-path:url(#clip-path-10);}.cls-8{fill:#ffcb39;}.cls-9{clip-path:url(#clip-path-15);}.cls-10{fill:#ff6915;}.cls-11{clip-path:url(#clip-path-16);}.cls-12{fill:#fc5d0d;}.cls-13{clip-path:url(#clip-path-20);}.cls-14{fill:#f9320b;}.cls-15{clip-path:url(#clip-path-24);}.cls-16{clip-path:url(#clip-path-28);}.cls-17{clip-path:url(#clip-path-32);}.cls-18{clip-path:url(#clip-path-36);}.cls-19{clip-path:url(#clip-path-40);}.cls-20{clip-path:url(#clip-path-41);}.cls-21{clip-path:url(#clip-path-45);}.cls-22{clip-path:url(#clip-path-49);}.cls-23{clip-path:url(#clip-path-50);}.cls-24{fill:#ea2700;}.cls-25{clip-path:url(#clip-path-54);}.cls-26{clip-path:url(#clip-path-58);}.cls-27{clip-path:url(#clip-path-62);}.cls-28{clip-path:url(#clip-path-66);}.cls-29{clip-path:url(#clip-path-70);}.cls-30{clip-path:url(#clip-path-74);}.cls-31{clip-path:url(#clip-path-78);}.cls-32{clip-path:url(#clip-path-82);}.cls-33{fill:#ffe75a;}.cls-34{clip-path:url(#clip-path-86);}.cls-35{clip-path:url(#clip-path-90);}.cls-36{clip-path:url(#clip-path-94);}.cls-37{clip-path:url(#clip-path-98);}.cls-38{clip-path:url(#clip-path-102);}.cls-39{clip-path:url(#clip-path-106);}.cls-40{clip-path:url(#clip-path-110);}.cls-41{clip-path:url(#clip-path-114);}.cls-42{clip-path:url(#clip-path-118);}.cls-43{clip-path:url(#clip-path-122);}.cls-44{clip-path:url(#clip-path-126);}.cls-45{clip-path:url(#clip-path-130);}.cls-46{clip-path:url(#clip-path-134);}.cls-47{clip-path:url(#clip-path-138);}.cls-48{clip-path:url(#clip-path-142);}.cls-49{clip-path:url(#clip-path-146);}.cls-50{clip-path:url(#clip-path-150);}.cls-51{clip-path:url(#clip-path-154);}.cls-52{clip-path:url(#clip-path-158);}.cls-53{clip-path:url(#clip-path-162);}.cls-54{clip-path:url(#clip-path-166);}.cls-55{clip-path:url(#clip-path-170);}.cls-56{clip-path:url(#clip-path-174);}.cls-57{clip-path:url(#clip-path-178);}.cls-58{clip-path:url(#clip-path-182);}.cls-59{clip-path:url(#clip-path-186);}.cls-60{clip-path:url(#clip-path-190);}.cls-61{clip-path:url(#clip-path-194);}.cls-62{clip-path:url(#clip-path-198);}.cls-63{clip-path:url(#clip-path-202);}.cls-64{stroke:#8b4513;stroke-miterlimit:2.23;stroke-width:7.46px;}.cls-65{fill:#fff;}</style><clipPath id="clip-path" transform="translate(-1.61 -0.78)"><rect class="cls-1" x="121.21" y="0.75" width="33.33" height="37.33"/></clipPath><clipPath id="clip-path-2" transform="translate(-1.61 -0.78)"><rect class="cls-1" x="124.35" y="-0.43" width="34.56" height="34.56" transform="translate(69.43 139.86) rotate(-66.37)"/></clipPath><clipPath id="clip-path-5" transform="translate(-1.61 -0.78)"><rect class="cls-1" x="124.54" y="-0.03" width="34.45" height="33.87" transform="translate(69.46 140.01) rotate(-66.37)"/></clipPath><clipPath id="clip-path-6" transform="translate(-1.61 -0.78)"><rect class="cls-1" x="123.88" y="16.75" width="26.67" height="21.33"/></clipPath><clipPath id="clip-path-10" transform="translate(-1.61 -0.78)"><rect class="cls-1" x="129.87" y="10.2" width="18.02" height="28.82" transform="translate(60.67 141.98) rotate(-66.37)"/></clipPath><clipPath id="clip-path-15" transform="translate(-1.61 -0.78)"><rect class="cls-1" x="124.86" y="-0.25" width="33.99" height="33.88" transform="translate(69.71 139.97) rotate(-66.37)"/></clipPath><clipPath id="clip-path-16" transform="translate(-1.61 -0.78)"><rect class="cls-1" x="121.21" y="0.75" width="28" height="24"/></clipPath><clipPath id="clip-path-20" transform="translate(-1.61 -0.78)"><rect class="cls-1" x="138.55" y="0.75" width="10.67" height="21.33"/></clipPath><clipPath id="clip-path-24" transform="translate(-1.61 -0.78)"><rect class="cls-1" x="135.88" y="14.09" width="5.33" height="6.67"/></clipPath><clipPath id="clip-path-28" transform="translate(-1.61 -0.78)"><rect class="cls-1" x="127.88" y="6.09" width="9.33" height="16"/></clipPath><clipPath id="clip-path-32" transform="translate(-1.61 -0.78)"><rect class="cls-1" x="121.21" y="10.09" width="9.33" height="9.33"/></clipPath><clipPath id="clip-path-36" transform="translate(-1.61 -0.78)"><rect class="cls-1" x="147.88" y="11.42" width="6.67" height="26.67"/></clipPath><clipPath id="clip-path-40" transform="translate(-1.61 -0.78)"><rect class="cls-1" x="138.38" y="19.46" width="23.95" height="11.48" transform="matrix(0.4, -0.92, 0.92, 0.4, 66.99, 152.84)"/></clipPath><clipPath id="clip-path-41" transform="translate(-1.61 -0.78)"><rect class="cls-1" x="147.88" y="11.42" width="6.67" height="24"/></clipPath><clipPath id="clip-path-45" transform="translate(-1.61 -0.78)"><rect class="cls-1" x="150.55" y="34.09" width="2.67" height="4"/></clipPath><clipPath id="clip-path-49" transform="translate(-1.61 -0.78)"><rect class="cls-1" x="149.16" y="34.6" width="3.89" height="1.84" transform="translate(58.1 159.8) rotate(-66.42)"/></clipPath><clipPath id="clip-path-50" transform="translate(-1.61 -0.78)"><rect class="cls-1" x="134.55" y="8.75" width="2.67" height="6.67"/></clipPath><clipPath id="clip-path-54" transform="translate(-1.61 -0.78)"><rect class="cls-1" x="138.55" y="6.09" width="5.33" height="5.33"/></clipPath><clipPath id="clip-path-58" transform="translate(-1.61 -0.78)"><rect class="cls-1" x="146.55" y="0.75" width="2.67" height="4"/></clipPath><clipPath id="clip-path-62" transform="translate(-1.61 -0.78)"><rect class="cls-1" x="146.55" y="0.75" width="2.67" height="8"/></clipPath><clipPath id="clip-path-66" transform="translate(-1.61 -0.78)"><rect class="cls-1" x="143.88" y="12.75" width="4" height="5.33"/></clipPath><clipPath id="clip-path-70" transform="translate(-1.61 -0.78)"><rect class="cls-1" x="147.88" y="12.75" width="2.67" height="5.33"/></clipPath><clipPath id="clip-path-74" transform="translate(-1.61 -0.78)"><rect class="cls-1" x="123.88" y="10.09" width="6.67" height="6.67"/></clipPath><clipPath id="clip-path-78" transform="translate(-1.61 -0.78)"><rect class="cls-1" x="133.21" y="18.09" width="1.33" height="2.67"/></clipPath><clipPath id="clip-path-82" transform="translate(-1.61 -0.78)"><rect class="cls-1" x="141.21" y="19.42" width="2.67" height="8"/></clipPath><clipPath id="clip-path-86" transform="translate(-1.61 -0.78)"><rect class="cls-1" x="130.55" y="23.42" width="4" height="4"/></clipPath><clipPath id="clip-path-90" transform="translate(-1.61 -0.78)"><rect class="cls-1" x="138.55" y="22.09" width="2.67" height="5.33"/></clipPath><clipPath id="clip-path-94" transform="translate(-1.61 -0.78)"><rect class="cls-1" x="143.88" y="27.42" width="2.67" height="5.33"/></clipPath><clipPath id="clip-path-98" transform="translate(-1.61 -0.78)"><rect class="cls-1" x="141.21" y="26.09" width="2.67" height="2.67"/></clipPath><clipPath id="clip-path-102" transform="translate(-1.61 -0.78)"><rect class="cls-1" x="145.21" y="32.75" width="2.67" height="4"/></clipPath><clipPath id="clip-path-106" transform="translate(-1.61 -0.78)"><rect class="cls-1" x="147.88" y="35.42" width="2.67" height="2.67"/></clipPath><clipPath id="clip-path-110" transform="translate(-1.61 -0.78)"><rect class="cls-1" x="125.21" y="19.42" width="1.33" height="4"/></clipPath><clipPath id="clip-path-114" transform="translate(-1.61 -0.78)"><rect class="cls-1" x="126.55" y="22.09" width="2.67" height="5.33"/></clipPath><clipPath id="clip-path-118" transform="translate(-1.61 -0.78)"><rect class="cls-1" x="123.88" y="16.75" width="2.67" height="8"/></clipPath><clipPath id="clip-path-122" transform="translate(-1.61 -0.78)"><rect class="cls-1" x="125.21" y="18.09" width="2.67" height="4"/></clipPath><clipPath id="clip-path-126" transform="translate(-1.61 -0.78)"><rect class="cls-1" x="129.21" y="16.75" width="2.67" height="5.33"/></clipPath><clipPath id="clip-path-130" transform="translate(-1.61 -0.78)"><rect class="cls-1" x="133.21" y="22.09" width="5.33" height="2.67"/></clipPath><clipPath id="clip-path-134" transform="translate(-1.61 -0.78)"><rect class="cls-1" x="141.21" y="10.09" width="4" height="6.67"/></clipPath><clipPath id="clip-path-138" transform="translate(-1.61 -0.78)"><rect class="cls-1" x="143.88" y="16.75" width="1.33" height="6.67"/></clipPath><clipPath id="clip-path-142" transform="translate(-1.61 -0.78)"><rect class="cls-1" x="142.55" y="24.75" width="4" height="2.67"/></clipPath><clipPath id="clip-path-146" transform="translate(-1.61 -0.78)"><rect class="cls-1" x="147.88" y="22.09" width="2.67" height="4"/></clipPath><clipPath id="clip-path-150" transform="translate(-1.61 -0.78)"><rect class="cls-1" x="147.88" y="28.75" width="2.67" height="4"/></clipPath><clipPath id="clip-path-154" transform="translate(-1.61 -0.78)"><rect class="cls-1" x="149.21" y="28.75" width="2.67" height="4"/></clipPath><clipPath id="clip-path-158" transform="translate(-1.61 -0.78)"><rect class="cls-1" x="143.88" y="22.09" width="6.67" height="4"/></clipPath><clipPath id="clip-path-162" transform="translate(-1.61 -0.78)"><rect class="cls-1" x="149.21" y="16.75" width="2.67" height="9.33"/></clipPath><clipPath id="clip-path-166" transform="translate(-1.61 -0.78)"><rect class="cls-1" x="147.88" y="26.09" width="2.67" height="4"/></clipPath><clipPath id="clip-path-170" transform="translate(-1.61 -0.78)"><rect class="cls-1" x="142.55" y="7.42" width="5.33" height="14.67"/></clipPath><clipPath id="clip-path-174" transform="translate(-1.61 -0.78)"><rect class="cls-1" x="130.55" y="14.09" width="4" height="9.33"/></clipPath><clipPath id="clip-path-178" transform="translate(-1.61 -0.78)"><rect class="cls-1" x="126.55" y="16.75" width="1.33" height="2.67"/></clipPath><clipPath id="clip-path-182" transform="translate(-1.61 -0.78)"><rect class="cls-1" x="126.55" y="18.09" width="2.67" height="5.33"/></clipPath><clipPath id="clip-path-186" transform="translate(-1.61 -0.78)"><rect class="cls-1" x="134.55" y="20.75" width="4" height="2.67"/></clipPath><clipPath id="clip-path-190" transform="translate(-1.61 -0.78)"><rect class="cls-1" x="139.88" y="16.75" width="2.67" height="4"/></clipPath><clipPath id="clip-path-194" transform="translate(-1.61 -0.78)"><rect class="cls-1" x="133.21" y="12.75" width="2.67" height="5.33"/></clipPath><clipPath id="clip-path-198" transform="translate(-1.61 -0.78)"><rect class="cls-1" x="143.88" y="4.75" width="4" height="6.67"/></clipPath><clipPath id="clip-path-202" transform="translate(-1.61 -0.78)"><rect class="cls-1" x="149.21" y="16.75" width="4" height="8"/></clipPath></defs><title>logoChow</title><g class="cls-2"><g class="cls-3"><g class="cls-3"><g class="cls-3"><g class="cls-4"><path class="cls-5" d="M147.88.78c1.18,2.39-1.71,4.82-3.74,5.16s-7.47,2.43-4.36,9.83a7.19,7.19,0,0,1,.84-3.48s2.25,3.91.93,6-4.57.14-3.45-3.07c-2.19,1.11-2.32,3.28-1.2,4.46s-2,4-2.78.35,5.9-7.27,1.54-12.61c1.29,2.87-.93,6.37-3.2,7s-5.07,2.85-3.48,5.91c-2.67-3.28,3-7.95-.06-9.74,1.48,2.3-1.59,5.32-3.78,5.63s-3.57,3.2-2.3,5.87-.15,4.3-.15,4.3,3.83-1.65,3.4-4.71c2,2,2,5.29,1.25,6.15,2.53-.52,3.46-3.66,3.46-3.66s2.69,6.31,7.59-.3c-1.33,1.71.6,3.34.6,3.34s-1.07-2.71,3.44-6.2c-2.83,3.61-1.52,8.65,2.45,6.84-2.23,2.84-.65,4.76,2.2,4.54-.73,3.55-2.94,2.83-2.94,2.83s2.1,2.31,4.63.78c-1.24,1.35-.79,1.79-2,1.94,4.86.58,4.67-.94,5.75-3.78a3.81,3.81,0,0,1-2,.24c2.91-1-1-.46,3.82-8.26a3.68,3.68,0,0,1-3.63,1.36c1.74-1.17,2.69-4.44.91-7.68-1.5-2.72-1.74-4.88-.31-7.2,0,0-4.58,2-2.82,6,1.42,3.19-.13,4.78-1.83,5.24,2.48-3.93.75-6.2-1-9.46-1.35-2.58-1.29-4.4.82-5.82,3-2,3.08-6.21,1.3-7.74" transform="translate(-1.61 -0.78)"/></g></g></g></g></g><g class="cls-6"><g class="cls-3"><g class="cls-3"><g class="cls-3"><g class="cls-7"><path class="cls-8" d="M146.81,37.92c.41,0,.79.08,1.13.1a5.39,5.39,0,0,0,1.74-2.34,1.38,1.38,0,0,1-.89-1,2.21,2.21,0,0,1-2.71,1.23c-.07,0,0-.13,0-.13a1.2,1.2,0,0,0,.95-.59,4.14,4.14,0,0,0,.44-1.34,4.27,4.27,0,0,1,.49-1.21,4,4,0,0,1,.66-.81,2,2,0,0,0-1.15,1.08c0,.07-.15,0-.13,0v0a5.35,5.35,0,0,1,.54-1.28,1.85,1.85,0,0,1-1.17.23,1.54,1.54,0,0,1-1.09-.65,1.47,1.47,0,0,1-.2-1.24,3.22,3.22,0,0,1,.79-1.19,5.16,5.16,0,0,0,.79-1,2.22,2.22,0,0,1-1.24.41c-.06,0-.1-.1,0-.12.94-.37,1.25-1.6,2.09-2.07a3.64,3.64,0,0,0-1.05.41,5,5,0,0,1-2.47,1,1.62,1.62,0,0,1-1.28-2.23,1.18,1.18,0,0,0-.65,1.05c0,.07-.09.12-.13.05a2.08,2.08,0,0,1,.06-1.91,5.79,5.79,0,0,1,.62-.93c.23-.33.48-.64.69-1a5.72,5.72,0,0,0,.71-1.84A6,6,0,0,0,144,17a3.18,3.18,0,0,1-.37,1.51,8.94,8.94,0,0,1-2.51,2.72,6.68,6.68,0,0,0-2.56,3.15c0,.08-.16.07-.14,0a5.73,5.73,0,0,0,.1-1.8,2.56,2.56,0,0,1-.21.68,2.88,2.88,0,0,1-3.9,1.45,2.4,2.4,0,0,0,.88.69c.08,0,0,.16,0,.15a5.69,5.69,0,0,1-1.29-.33,5.58,5.58,0,0,1-3.14-3,3.94,3.94,0,0,0-.37,1.82c0,.07-.11.13-.15.06l-.19-.37a7.24,7.24,0,0,1-1.61,3,.09.09,0,0,1-.16-.07,10.8,10.8,0,0,0,.16-2,3.61,3.61,0,0,0-.15-.86,2.94,2.94,0,0,0-.39-.77,11.29,11.29,0,0,0-1.15-1.34,4.26,4.26,0,0,1-1.29-2.29,5.34,5.34,0,0,0-.25,1.48,10.44,10.44,0,0,1-.44,3.24,5.16,5.16,0,0,1-.85,1.43,4.28,4.28,0,0,0,2.12-4c2,2,2,5.29,1.25,6.15,2.53-.52,3.46-3.66,3.46-3.66s2.69,6.31,7.59-.3c-1.33,1.71.6,3.34.6,3.34s-1.07-2.71,3.44-6.2c-2.83,3.61-1.52,8.65,2.45,6.84-2.23,2.84-.65,4.76,2.2,4.54-.73,3.55-2.94,2.83-2.94,2.83s2.1,2.31,4.63.78c-1.24,1.35-.79,1.79-2,1.94" transform="translate(-1.61 -0.78)"/></g></g></g></g></g><g class="cls-2"><g class="cls-3"><g class="cls-3"><g class="cls-3"><g class="cls-9"><path class="cls-10" d="M152.56,34.14a3.81,3.81,0,0,1-2,.24c2.91-1-1-.46,3.82-8.26a3.68,3.68,0,0,1-3.63,1.36c1.74-1.17,2.69-4.44.91-7.68-1.5-2.72-1.74-4.88-.31-7.2,0,0-4.58,2-2.82,6,1.42,3.19-.13,4.78-1.83,5.24,2.48-3.93.75-6.2-1-9.46-1.35-2.58-1.29-4.4.82-5.82,3-2,3.08-6.21,1.3-7.74,1.18,2.39-1.71,4.82-3.74,5.16s-7.47,2.43-4.36,9.83a7.19,7.19,0,0,1,.84-3.48s2.25,3.91.93,6-4.57.14-3.45-3.07c-2.19,1.11-2.32,3.28-1.2,4.46s-2,4-2.78.35,5.9-7.27,1.54-12.61c1.29,2.87-.93,6.37-3.2,7s-5.07,2.85-3.48,5.91c-2.67-3.28,3-7.95-.06-9.74,1.48,2.3-1.59,5.32-3.78,5.63s-3.57,3.2-2.3,5.87-.15,4.3-.15,4.3l.33-.16a2.51,2.51,0,0,0,.55-1.55c.1-1.88-1.29-4,0-5.76,0-.06.11,0,.09.06a1.75,1.75,0,0,0,.51,1.8,2.65,2.65,0,0,1,.26-2.27,6.9,6.9,0,0,1,2.46-2.12s.12,0,.07.09a3.11,3.11,0,0,0-.65,2c.06,1.33,1.06,2.27,1.8,3.26a3.82,3.82,0,0,1,.82,2.45,5.81,5.81,0,0,0,.45-2.85.07.07,0,0,1,.13,0,2.65,2.65,0,0,1,.41,1.39,2.53,2.53,0,0,0,.16-1.28,11.27,11.27,0,0,1-.1-1.54,3.29,3.29,0,0,1,1.41-2.55c.06-.05.14,0,.12.09a9.78,9.78,0,0,0-.52,1.83,4.52,4.52,0,0,0,.42,3.09,2.94,2.94,0,0,0,2.11,1.41,3.08,3.08,0,0,1-1.17-2,.09.09,0,0,1,.16-.05A3.75,3.75,0,0,0,134,23.16a2.85,2.85,0,0,0,3.24-.11,2.5,2.5,0,0,0,.88-2.8c0-.08.07-.14.13-.09A3.17,3.17,0,0,1,139.5,22a4.28,4.28,0,0,1,1.84-2,5.27,5.27,0,0,0,1.11-.87,2.29,2.29,0,0,0,.56-1.37,5.41,5.41,0,0,0-.13-1.5,9.93,9.93,0,0,0-.48-1.39,7.11,7.11,0,0,1-.71-2.67,2.68,2.68,0,0,1,1-2.23c.07-.05.14,0,.12.1a4.74,4.74,0,0,0,.28,3.17A23.43,23.43,0,0,0,144.43,16a8.27,8.27,0,0,1,1.08,2.75,6.33,6.33,0,0,1-1.5,4.95,2.24,2.24,0,0,0,1.46-1.09.09.09,0,0,1,.16.06,6,6,0,0,1-1.76,2.83,4.81,4.81,0,0,0,1.6.23,4.73,4.73,0,0,0,2.93-1.13A4.79,4.79,0,0,0,150,21.61c0-.07.14-.1.17,0,.52,1.52-.21,3.1-1.07,4.36a.33.33,0,0,1,.27.21,1,1,0,0,1-.18.8,11.67,11.67,0,0,1-1.39,1.33,1.42,1.42,0,0,0-.39,1.57,1.31,1.31,0,0,0,1.41.52,3.25,3.25,0,0,0,1.63-1.05.08.08,0,0,1,.14,0,2.34,2.34,0,0,1-.55,2.27c-.59.75-1.47,1.42-1.71,2.37a3.38,3.38,0,0,1,1.49-1c.08,0,.15.09.07.14a1.35,1.35,0,0,0-.48,1.49,1.29,1.29,0,0,0,1.31.82.08.08,0,0,1,.08.12,4.83,4.83,0,0,1-.71,1.14A5.28,5.28,0,0,1,148.29,38c3.35.09,3.31-1.39,4.27-3.9" transform="translate(-1.61 -0.78)"/></g></g></g></g></g><g class="cls-11"><g class="cls-3"><g class="cls-3"><g class="cls-3"><path class="cls-12" d="M146.72,23.8c2.48-3.93.75-6.2-1-9.46-1.35-2.58-1.29-4.4.82-5.82,3-2,3.08-6.21,1.3-7.74,1.18,2.39-1.71,4.82-3.74,5.16s-7.47,2.43-4.36,9.83a7.19,7.19,0,0,1,.84-3.48s2.25,3.91.93,6-4.57.14-3.45-3.07c-2.19,1.11-2.32,3.28-1.2,4.46s-2,4-2.78.35,5.9-7.27,1.54-12.61c1.29,2.87-.93,6.37-3.2,7s-5.07,2.85-3.48,5.91c-2.67-3.28,3-7.95-.06-9.74,1.48,2.3-1.59,5.32-3.78,5.63-1.83.26-3.08,2.29-2.72,4.5a5.06,5.06,0,0,1,2-3.52c.06-.05.14,0,.09.09a1.09,1.09,0,0,0-.33.7,3.5,3.5,0,0,1,1.6-1.34A7,7,0,0,0,128,15.21a.07.07,0,1,1,.1.09,4,4,0,0,0-.55,4c0-.37,0-.74.09-1.12,0-.09.14-.07.15,0a8.78,8.78,0,0,0,1.27,3.21,8.31,8.31,0,0,1,.08-2.28.08.08,0,0,1,.16,0,2.66,2.66,0,0,0,.1.38,4.08,4.08,0,0,1,0-.78,4,4,0,0,1,3.25-3.37.08.08,0,0,1,.07.13l-.48.54A5.68,5.68,0,0,0,135,13.62a.07.07,0,0,1,.14,0A8,8,0,0,1,133.39,17a4.82,4.82,0,0,0-1.08,2.69,6.93,6.93,0,0,0,.26-.72c0-.11.21-.06.19.05a3.56,3.56,0,0,0,.6,2.5,2.43,2.43,0,0,0,2,1.06,2.25,2.25,0,0,0,1.9-1,2.67,2.67,0,0,0,.06-2.18,4.3,4.3,0,0,1-.22-2.07.11.11,0,0,1,.21,0c0,1.4,1.25,2.38,2.29,3.14.29-.65,1.16-.82,1.71-1.16a2.38,2.38,0,0,0,1-1.8,5.16,5.16,0,0,0-.34-2.3c-.26-.75-.61-1.46-.85-2.21a5.5,5.5,0,0,1-.3-2.09,1.72,1.72,0,0,0-1,1.45.09.09,0,0,1-.18,0,3,3,0,0,1,.37-1.9,6.08,6.08,0,0,1,2.75-2.36,16.52,16.52,0,0,0,3.44-1.85c.08,0,.18,0,.12.12a12.17,12.17,0,0,0-2.23,3.41,4.61,4.61,0,0,0-.32,1.76,4.62,4.62,0,0,0,.3,1.43,17.38,17.38,0,0,0,1.42,2.66,8.63,8.63,0,0,1,1.09,2.84,6.81,6.81,0,0,1-.15,3l.16-.1a.11.11,0,0,1,.15.11,6.78,6.78,0,0,1-1.39,2.94,4,4,0,0,0,1.9-.61,4.89,4.89,0,0,0,1.13-1,3.43,3.43,0,0,1-1.66,1" transform="translate(-1.61 -0.78)"/></g></g></g></g><g class="cls-13"><g class="cls-3"><g class="cls-3"><g class="cls-3"><path class="cls-14" d="M139.5,13.79s-.1,0-.11,0a5.11,5.11,0,0,1,.36-4.12,4.81,4.81,0,0,1,.86-1.09A8.1,8.1,0,0,1,142.91,7c1-.44,2-.77,2.92-1.15a8.55,8.55,0,0,0,1.38-.62,2.14,2.14,0,0,0,.94-1,.06.06,0,0,1,.12,0,3.17,3.17,0,0,1-.05.53,4.7,4.7,0,0,1-.76,1.92,4.18,4.18,0,0,1-.68.78c-.27.24-.55.47-.81.71a5,5,0,0,0-1.13,1.56,4.75,4.75,0,0,0-.42,1.82,4.55,4.55,0,0,0,.37,1.89,19.36,19.36,0,0,0,1,1.85c.35.65.66,1.32,1,2,.14.33.26.67.4,1s.26.64.37,1a5.4,5.4,0,0,1,.27,2.19c.68-2.62-.68-4.58-2-7.13s-1.29-4.4.82-5.82c3-2,3.08-6.21,1.3-7.74,1.18,2.39-1.71,4.82-3.74,5.16s-7,2.27-4.7,9a4.52,4.52,0,0,1,.06-1.1" transform="translate(-1.61 -0.78)"/></g></g></g></g><g class="cls-15"><g class="cls-3"><g class="cls-3"><g class="cls-3"><path class="cls-14" d="M137.7,16.05a.09.09,0,0,1,.08.1,2.7,2.7,0,0,0-.08.9,3.14,3.14,0,0,0,.55,1.51,5.48,5.48,0,0,0,.58.6,2.09,2.09,0,0,1,.41.53,1.12,1.12,0,0,1,.54-.49l.22-.1c-1.33-.07-2.68-1.68-1.9-3.92-2.19,1.11-2.32,3.28-1.2,4.46a.83.83,0,0,1,.21.36,3.68,3.68,0,0,0-.16-1,3.84,3.84,0,0,1-.23-1.61,2.43,2.43,0,0,1,.41-.84c.15-.22.26-.51.57-.47" transform="translate(-1.61 -0.78)"/></g></g></g></g><g class="cls-16"><g class="cls-3"><g class="cls-3"><g class="cls-3"><path class="cls-14" d="M128.67,17.78a5.65,5.65,0,0,1,1.75-1.92,11.4,11.4,0,0,1,2.44-1.35.09.09,0,0,1,.11.11l-.06.19.73-.51a9.79,9.79,0,0,0,1.52-1.36,5.73,5.73,0,0,0,1-1.64.08.08,0,0,1,.15,0,4.52,4.52,0,0,1,0,.52,9.46,9.46,0,0,1-1.26,4.2c-.18.35-.37.69-.56,1s-.39.64-.57,1a4.49,4.49,0,0,0-.42,1,3.33,3.33,0,0,0-.09.94,2,2,0,0,0,.79,1.5,1.83,1.83,0,0,0,1.6.25c-.64.12-1.37-.28-1.7-1.77-.81-3.62,5.9-7.27,1.54-12.61,1.29,2.87-.93,6.37-3.2,7-1.67.48-3.63,1.8-3.91,3.69a1.66,1.66,0,0,1,.12-.31" transform="translate(-1.61 -0.78)"/></g></g></g></g><g class="cls-17"><g class="cls-3"><g class="cls-3"><g class="cls-3"><path class="cls-14" d="M122.76,18.46a4,4,0,0,1,.66-.92,6.36,6.36,0,0,1,1.7-1.1c.64-.32,1.31-.59,1.92-1a16,16,0,0,0,1.89-1.38.07.07,0,0,1,.11.08c-.14.38-.3.75-.45,1.12a6.65,6.65,0,0,0-.45,1.91,2.83,2.83,0,0,0,.1,1.05c-.06-2.94,3.11-6.25.68-7.69,1.48,2.3-1.59,5.32-3.78,5.63a3.42,3.42,0,0,0-2.71,2.9c.1-.22.21-.43.33-.64" transform="translate(-1.61 -0.78)"/></g></g></g></g><g class="cls-18"><g class="cls-3"><g class="cls-3"><g class="cls-3"><g class="cls-19"><path class="cls-12" d="M152.56,34.14a3.81,3.81,0,0,1-2,.24c2.91-1-1-.46,3.82-8.26a3.68,3.68,0,0,1-3.63,1.36c1.74-1.17,2.69-4.44.91-7.68-1.5-2.72-1.74-4.88-.31-7.2,0,0-4.58,2-2.82,6a4.15,4.15,0,0,1,.22,3.7,4.17,4.17,0,0,0,.56-1.62c.17-1.46-.57-3,.14-4.4a.1.1,0,0,1,.2.06,6.21,6.21,0,0,0,.22,2.31,39.11,39.11,0,0,1,1.21,3.95,4.89,4.89,0,0,1-.45,3.28l.33-.23c.09-.06.18,0,.15.13-.37,1.27-1.79,1.93-2.2,3.15a4,4,0,0,1,2.66-.89c.09,0,.11.13,0,.18s-.36.26-.54.39a4.57,4.57,0,0,0,1.56-.74,1.73,1.73,0,0,1,.25-.21c.1-.07.2.08.11.16l-.24.19a2.65,2.65,0,0,0-.61.91c-.58,1.43-.35,3.31-1.44,4.48l.21,0c.11,0,.15.15,0,.2a.89.89,0,0,0-.51,1,.85.85,0,0,0,1.08.42.11.11,0,0,1,.14.11,4.76,4.76,0,0,1-.51,1.26,5.29,5.29,0,0,1-1.34,1.56c1.83-.38,1.95-1.75,2.73-3.79" transform="translate(-1.61 -0.78)"/></g></g></g></g></g><g class="cls-20"><g class="cls-3"><g class="cls-3"><g class="cls-3"><path class="cls-14" d="M148.58,17a4.81,4.81,0,0,1,1.5-2.93s.11,0,.09.08a4.18,4.18,0,0,0-.14,2.3,25,25,0,0,0,1.61,4.07,4.9,4.9,0,0,1,.13,3.95l.15,0s.09,0,.08.08a5.71,5.71,0,0,1-1.54,2.89,3.66,3.66,0,0,0,2.83,0c.06,0,.14.07.09.12a4.13,4.13,0,0,0-1,1.48,6.81,6.81,0,0,0-.42,1.53c-.09.53-.13,1.05-.21,1.58a4.51,4.51,0,0,1-.94,2.2c2.47-.93-1.1-.6,3.59-8.18a3.68,3.68,0,0,1-3.63,1.36c1.74-1.17,2.69-4.44.91-7.68-1.5-2.72-1.74-4.88-.31-7.2,0,0-4.5,2-2.86,5.86a7.72,7.72,0,0,1,.07-1.44" transform="translate(-1.61 -0.78)"/></g></g></g></g><g class="cls-21"><g class="cls-3"><g class="cls-3"><g class="cls-3"><g class="cls-22"><path class="cls-14" d="M150.61,34.51a3.88,3.88,0,0,0,1.36.1.07.07,0,0,1,.08.08,5.44,5.44,0,0,1-.21,1,5.51,5.51,0,0,1-1,1.81c.87-.64,1.08-1.8,1.67-3.35a3.88,3.88,0,0,1-1.84.26l-.11.11" transform="translate(-1.61 -0.78)"/></g></g></g></g></g><g class="cls-23"><g class="cls-3"><g class="cls-3"><g class="cls-3"><path class="cls-24" d="M136.33,9.12a6.55,6.55,0,0,1-.14,4.13c-.1.33-.23.71-.32,1l.26-.47a4.49,4.49,0,0,0,.2-4.67" transform="translate(-1.61 -0.78)"/></g></g></g></g><g class="cls-25"><g class="cls-3"><g class="cls-3"><g class="cls-3"><path class="cls-24" d="M143.25,6.32a8.29,8.29,0,0,0-2.09,1.13,5.82,5.82,0,0,0-1.91,3A9.58,9.58,0,0,1,143,6.58l.78-.47c-.19.07-.38.13-.56.21" transform="translate(-1.61 -0.78)"/></g></g></g></g><g class="cls-26"><g class="cls-3"><g class="cls-3"><g class="cls-3"><path class="cls-24" d="M148.45,2a4.22,4.22,0,0,1-.95,2.14l-.31.36.17-.12A2.53,2.53,0,0,0,148.45,2" transform="translate(-1.61 -0.78)"/></g></g></g></g><g class="cls-27"><g class="cls-3"><g class="cls-3"><g class="cls-3"><path class="cls-24" d="M148.47,2.07a8.4,8.4,0,0,1-1.08,5.18c-.24.38-.49.78-.74,1.13l.47-.47a5.42,5.42,0,0,0,1.35-5.84" transform="translate(-1.61 -0.78)"/></g></g></g></g><g class="cls-28"><g class="cls-3"><g class="cls-3"><g class="cls-3"><path class="cls-24" d="M146.24,15.27a21.64,21.64,0,0,0-1.27-2c.65,1.44,1.49,3,2.18,4.32a14.06,14.06,0,0,0-.91-2.33" transform="translate(-1.61 -0.78)"/></g></g></g></g><g class="cls-29"><g class="cls-3"><g class="cls-3"><g class="cls-3"><path class="cls-24" d="M150.54,13.39a3.72,3.72,0,0,0-2,3.06,2.84,2.84,0,0,0,0,.38c0-.16.1-.32.16-.47a6.65,6.65,0,0,1,1.92-3" transform="translate(-1.61 -0.78)"/></g></g></g></g><g class="cls-30"><g class="cls-3"><g class="cls-3"><g class="cls-3"><path class="cls-24" d="M129.12,13.14a3.1,3.1,0,0,0,.12-1.9,2.21,2.21,0,0,1-.08.84,5.34,5.34,0,0,1-1.47,2.22,9.48,9.48,0,0,1-1.92,1.53c-.3.2-1.06.5-1.38.67l.88-.19a5.52,5.52,0,0,0,3.85-3.17" transform="translate(-1.61 -0.78)"/></g></g></g></g><g class="cls-31"><g class="cls-3"><g class="cls-3"><g class="cls-3"><path class="cls-24" d="M133.86,18.72a2.64,2.64,0,0,0,.16,2,7.15,7.15,0,0,1-.16-2" transform="translate(-1.61 -0.78)"/></g></g></g></g><g class="cls-32"><g class="cls-3"><g class="cls-3"><g class="cls-3"><path class="cls-33" d="M141.44,26.27a14.28,14.28,0,0,1,.38-1.56,13.79,13.79,0,0,1,1.2-2.4,5,5,0,0,0,.66-2.65c-.16,1.41-1.05,2.35-1.69,3.58a5.6,5.6,0,0,0-.55,2.42c0,.21,0,.45,0,.66v-.05" transform="translate(-1.61 -0.78)"/></g></g></g></g><g class="cls-34"><g class="cls-3"><g class="cls-3"><g class="cls-3"><path class="cls-33" d="M134,26.05a3,3,0,0,1-1.3-.58,3.87,3.87,0,0,1-1.13-1.15,2.52,2.52,0,0,0,2.72,1.82l.23,0-.52-.06" transform="translate(-1.61 -0.78)"/></g></g></g></g><g class="cls-35"><g class="cls-3"><g class="cls-3"><g class="cls-3"><path class="cls-33" d="M140.68,22.3l-.23.18a4.13,4.13,0,0,0-1.82,3.66,7.21,7.21,0,0,1,1.61-3.29c.14-.18.3-.39.44-.55" transform="translate(-1.61 -0.78)"/></g></g></g></g><g class="cls-36"><g class="cls-3"><g class="cls-3"><g class="cls-3"><path class="cls-33" d="M145.69,31.72a4.77,4.77,0,0,1-.39-.33,2.51,2.51,0,0,1-.43-.56,2.79,2.79,0,0,1,.43-2.46c-1.14,1.11-1.35,2.52.24,3.29l.15.06" transform="translate(-1.61 -0.78)"/></g></g></g></g><g class="cls-37"><g class="cls-3"><g class="cls-3"><g class="cls-3"><path class="cls-33" d="M142.07,26.64a1.58,1.58,0,0,0,.61.74,3.07,3.07,0,0,0,.94.27,3.52,3.52,0,0,1-1.55-1" transform="translate(-1.61 -0.78)"/></g></g></g></g><g class="cls-38"><g class="cls-3"><g class="cls-3"><g class="cls-3"><path class="cls-33" d="M147.38,33.13c-.3.53-.55,1.09-.84,1.51a3.57,3.57,0,0,1-.89.84l-.2.12.17-.05c1.35-.44,1.45-1.18,1.76-2.42" transform="translate(-1.61 -0.78)"/></g></g></g></g><g class="cls-39"><g class="cls-3"><g class="cls-3"><g class="cls-3"><path class="cls-33" d="M148.37,37.23s-.07.09,0,.07.23-.21.34-.32a4.18,4.18,0,0,0,.59-1,6.38,6.38,0,0,0-.89,1.25" transform="translate(-1.61 -0.78)"/></g></g></g></g><g class="cls-40"><g class="cls-3"><g class="cls-3"><g class="cls-3"><path class="cls-33" d="M125.77,21.76a3.07,3.07,0,0,0-.15-1.08,11.3,11.3,0,0,1-.29,2.56,4.69,4.69,0,0,0,.44-1.48" transform="translate(-1.61 -0.78)"/></g></g></g></g><g class="cls-41"><g class="cls-3"><g class="cls-3"><g class="cls-3"><path class="cls-33" d="M128,26.14a3.37,3.37,0,0,0-1.1-3.8,3.45,3.45,0,0,1,.76,1.63,8.31,8.31,0,0,1,.23,1.16,8.2,8.2,0,0,1,0,1.21c0,.15,0-.14.07-.2" transform="translate(-1.61 -0.78)"/></g></g></g></g><g class="cls-42"><g class="cls-3"><g class="cls-3"><g class="cls-3"><path class="cls-8" d="M124.92,22.46a10.76,10.76,0,0,0,.16-1.88,5.29,5.29,0,0,1,.68-3,4.76,4.76,0,0,0-1.3,3.75,8.67,8.67,0,0,1-.27,2.66,4.84,4.84,0,0,1-.22.61,5,5,0,0,0,.44-.74,5.87,5.87,0,0,0,.51-1.42" transform="translate(-1.61 -0.78)"/></g></g></g></g><g class="cls-43"><g class="cls-3"><g class="cls-3"><g class="cls-3"><path class="cls-8" d="M127.22,21.51c0-.07-.1-.19-.14-.25a6.83,6.83,0,0,1-1-2.72,2.57,2.57,0,0,0,.06,1.32,6.17,6.17,0,0,0,1.13,1.69c0,.06,0,0,0,0" transform="translate(-1.61 -0.78)"/></g></g></g></g><g class="cls-44"><g class="cls-3"><g class="cls-3"><g class="cls-3"><path class="cls-8" d="M130.77,20.93a11.29,11.29,0,0,1,0-1.84A4.18,4.18,0,0,1,131,18a3.6,3.6,0,0,0-.26,3.3,1,1,0,0,0,0,.16c0-.18,0-.37,0-.56" transform="translate(-1.61 -0.78)"/></g></g></g></g><g class="cls-45"><g class="cls-3"><g class="cls-3"><g class="cls-3"><path class="cls-8" d="M137.55,23.45a2.55,2.55,0,0,1-1.29.67,3,3,0,0,1-1.89-.22,2.26,2.26,0,0,0,3.4-.54L138,23c-.16.17-.36.36-.48.48" transform="translate(-1.61 -0.78)"/></g></g></g></g><g class="cls-46"><g class="cls-3"><g class="cls-3"><g class="cls-3"><path class="cls-8" d="M143.62,15.83c-.56-1.5-1.44-2.89-1.38-4.47a4.62,4.62,0,0,0,.08,2.58,10,10,0,0,0,1.26,2.23l.38.57c-.12-.3-.23-.61-.34-.91" transform="translate(-1.61 -0.78)"/></g></g></g></g><g class="cls-47"><g class="cls-3"><g class="cls-3"><g class="cls-3"><path class="cls-8" d="M144.64,17.56a7.38,7.38,0,0,1-.34,4.37c-.06.19-.15.4-.22.57l.23-.34a4.14,4.14,0,0,0,.33-4.6" transform="translate(-1.61 -0.78)"/></g></g></g></g><g class="cls-48"><g class="cls-3"><g class="cls-3"><g class="cls-3"><path class="cls-8" d="M143.75,25.93c.39.55,1.38.48,1.81.34a3.6,3.6,0,0,1-1.81-.34" transform="translate(-1.61 -0.78)"/></g></g></g></g><g class="cls-49"><g class="cls-3"><g class="cls-3"><g class="cls-3"><path class="cls-8" d="M150,22.53a10.1,10.1,0,0,1-1.34,2.83c0,.07-.12.16-.16.23l.25-.24A3.69,3.69,0,0,0,150,22.53" transform="translate(-1.61 -0.78)"/></g></g></g></g><g class="cls-50"><g class="cls-3"><g class="cls-3"><g class="cls-3"><path class="cls-8" d="M150.32,29.79a3.73,3.73,0,0,1-.43.75c-.27.41-.38.64-.65,1.05l0,0a3.59,3.59,0,0,0,.39-.39,2.54,2.54,0,0,0,.72-1.45" transform="translate(-1.61 -0.78)"/></g></g></g></g><g class="cls-51"><g class="cls-3"><g class="cls-3"><g class="cls-3"><path class="cls-5" d="M151.42,30.42c.16-.51.2-1,.37-1.53A8.12,8.12,0,0,0,151,30.5a12.16,12.16,0,0,1-.95,1.87,4.82,4.82,0,0,0,1.33-1.95" transform="translate(-1.61 -0.78)"/></g></g></g></g><g class="cls-52"><g class="cls-3"><g class="cls-3"><g class="cls-3"><path class="cls-5" d="M149,22.73a4.63,4.63,0,0,1-1.67,1.39,7.34,7.34,0,0,1-2.28.74,4,4,0,0,0,3.07-.73,5.23,5.23,0,0,0,1.2-1.66,4,4,0,0,0,.17-.37,5.91,5.91,0,0,1-.49.63" transform="translate(-1.61 -0.78)"/></g></g></g></g><g class="cls-53"><g class="cls-3"><g class="cls-3"><g class="cls-3"><path class="cls-5" d="M150.83,22.51c-.12-1.56-.88-3-1.23-4.45a41.51,41.51,0,0,0,.84,4.69,6.82,6.82,0,0,1-.12,1.94c0,.12-.07.31-.09.4a1.89,1.89,0,0,0,.11-.25,5.09,5.09,0,0,0,.49-2.33" transform="translate(-1.61 -0.78)"/></g></g></g></g><g class="cls-54"><g class="cls-3"><g class="cls-3"><g class="cls-3"><path class="cls-5" d="M150,26.45c-.34.47-.77.88-1.13,1.34a5.44,5.44,0,0,0-.71,1.33A13.8,13.8,0,0,0,150,26.45" transform="translate(-1.61 -0.78)"/></g></g></g></g><g class="cls-55"><g class="cls-3"><g class="cls-3"><g class="cls-3"><path class="cls-5" d="M146.63,17.83a17.28,17.28,0,0,0-1.83-3.77c-1-1.6-1.62-3.87-.44-5.86a4.88,4.88,0,0,0-.94,4.6,15.44,15.44,0,0,0,1.93,3.63,6.73,6.73,0,0,1,.93,1.83,11.45,11.45,0,0,1,.33,2.62,8.45,8.45,0,0,0,0-3.05" transform="translate(-1.61 -0.78)"/></g></g></g></g><g class="cls-56"><g class="cls-3"><g class="cls-3"><g class="cls-3"><path class="cls-5" d="M131.76,21.53a10.22,10.22,0,0,1,.2-2.44,10.86,10.86,0,0,1,.65-1.65c.4-.76.81-1.32,1.26-2.07a12.36,12.36,0,0,0-1.81,2.14,5,5,0,0,0-.64,1.9,8.65,8.65,0,0,0,.25,2.37c0,.15.09.32.14.46a5.78,5.78,0,0,1-.05-.71" transform="translate(-1.61 -0.78)"/></g></g></g></g><g class="cls-57"><g class="cls-3"><g class="cls-3"><g class="cls-3"><path class="cls-5" d="M127.09,18.11a3,3,0,0,1,.11-1.32,3,3,0,0,0,0,2.49c0-.39,0-.78-.07-1.17" transform="translate(-1.61 -0.78)"/></g></g></g></g><g class="cls-58"><g class="cls-3"><g class="cls-3"><g class="cls-3"><path class="cls-5" d="M128.34,20.66a2.34,2.34,0,0,1-.58-1.29,1.51,1.51,0,0,0,0,.79,4.15,4.15,0,0,0,.35.65c.23.44.48,1,.7,1.56a5.72,5.72,0,0,0-.51-1.71" transform="translate(-1.61 -0.78)"/></g></g></g></g><g class="cls-59"><g class="cls-3"><g class="cls-3"><g class="cls-3"><path class="cls-5" d="M137.56,21.19a7.47,7.47,0,0,1-.69.8,2.57,2.57,0,0,1-.93.69,2.5,2.5,0,0,1-1.29.15,2.18,2.18,0,0,0,1.55,0,3.18,3.18,0,0,0,1.24-1.4l.12-.25" transform="translate(-1.61 -0.78)"/></g></g></g></g><g class="cls-60"><g class="cls-3"><g class="cls-3"><g class="cls-3"><path class="cls-5" d="M142.49,17.18a4.54,4.54,0,0,1-1.64,2.43c0,.07-.22.21-.26.26l.23-.14a2.75,2.75,0,0,0,1.67-2.55" transform="translate(-1.61 -0.78)"/></g></g></g></g><g class="cls-61"><g class="cls-3"><g class="cls-3"><g class="cls-3"><path class="cls-10" d="M135.44,14.92a3.64,3.64,0,0,0,.12-2.14,4.16,4.16,0,0,1-.39,1.87,17.87,17.87,0,0,1-1.25,2.61l-.4.68.37-.42a6.59,6.59,0,0,0,1.55-2.6" transform="translate(-1.61 -0.78)"/></g></g></g></g><g class="cls-62"><g class="cls-3"><g class="cls-3"><g class="cls-3"><path class="cls-10" d="M147.51,5.62a10.05,10.05,0,0,1-1.72,1.79,8.81,8.81,0,0,0-1.61,2.8,25,25,0,0,1,1.75-2.34,6.8,6.8,0,0,0,1.58-2.25" transform="translate(-1.61 -0.78)"/></g></g></g></g><g class="cls-63"><g class="cls-3"><g class="cls-3"><g class="cls-3"><path class="cls-10" d="M151.81,23.14c.51-2.64-.85-3.78-1.68-5.91.3,2.13,1.55,3.88,1.61,5.85,0,.12,0,.26,0,.37l.06-.31" transform="translate(-1.61 -0.78)"/></g></g></g></g><path class="cls-64" d="M18,49.32a16.52,16.52,0,0,1-6.55-1.23A9.76,9.76,0,0,1,7,44.19a13.14,13.14,0,0,1-1.63-6.91,16.18,16.18,0,0,1,1.6-7.42A11.86,11.86,0,0,1,11.35,25a12.34,12.34,0,0,1,6.5-1.71,17.38,17.38,0,0,1,4.41.57A19.84,19.84,0,0,1,26,25.2a1.16,1.16,0,0,1,.51,1.19c0,.18,0,.51-.06,1s-.07,1.05-.11,1.66-.07,1.16-.1,1.67-.07.86-.09,1.05a.63.63,0,0,1-.58.66.78.78,0,0,1-.81-.51,8.35,8.35,0,0,0-2.6-2.9,7.64,7.64,0,0,0-4.38-1.11A6.09,6.09,0,0,0,14.33,29a7.15,7.15,0,0,0-2.48,3.1,12.27,12.27,0,0,0-.91,5,8.84,8.84,0,0,0,1,4.43,5.53,5.53,0,0,0,2.58,2.4,8.48,8.48,0,0,0,3.55.73,10,10,0,0,0,4.68-1,7,7,0,0,0,3.1-3.17.77.77,0,0,1,.89-.55c.41.07.62.36.64.87l.15,2.94c.05,1,.09,2,.11,3a1,1,0,0,1-.17.71,1.53,1.53,0,0,1-.49.49,14.78,14.78,0,0,1-2.63.78,29.83,29.83,0,0,1-3.32.52A26,26,0,0,1,18,49.32Zm27.87-.11c-.24,0-.56,0-1,0s-.79-.06-1.18-.1a1.28,1.28,0,0,1-.63-.33.89.89,0,0,1-.28-.69c0-2.11,0-4.26,0-6.46s.06-4.34.11-6.43.11-4.07.19-5.89.2-3.41.32-4.77a1,1,0,0,1,.91-.91,6.89,6.89,0,0,1,.89-.12l.74,0c.32,0,.65,0,1,0s.71.06,1,.1c.62.12.92.45.87,1-.1,1.05-.19,2.11-.28,3.17s-.12,2.28-.12,3.64a2,2,0,0,0,1,1.94,7.1,7.1,0,0,0,2.61.54c.48,0,1.09,0,1.82,0s1.33,0,1.82,0a7.78,7.78,0,0,0,2.71-.54,1.91,1.91,0,0,0,1.07-1.94c0-1.36,0-2.57-.13-3.65s-.17-2.15-.27-3.19a.9.9,0,0,1,.23-.69,1,1,0,0,1,.64-.32,8.47,8.47,0,0,1,1.13-.1l1,0,.73,0a5.67,5.67,0,0,1,.87.1,1,1,0,0,1,.91.94c.12,1.35.23,2.94.31,4.77s.16,3.77.21,5.87.11,4.25.14,6.46,0,4.37,0,6.48a.86.86,0,0,1-.29.69,1.44,1.44,0,0,1-.65.33c-.39,0-.8.08-1.21.1s-.73,0-1,0-.61,0-1.17,0l-1.3-.07a1.28,1.28,0,0,1-.65-.36A.91.91,0,0,1,58.9,48c.17-1.21.32-2.41.43-3.6a32.11,32.11,0,0,0,.19-3.5,1.83,1.83,0,0,0-1-1.84,6.7,6.7,0,0,0-2.68-.52c-.48,0-1.1,0-1.85,0s-1.37,0-1.86,0a6.1,6.1,0,0,0-2.57.52,1.87,1.87,0,0,0-.92,1.84c0,1.12,0,2.29.16,3.49s.25,2.4.42,3.61a.91.91,0,0,1-.18.77,1.13,1.13,0,0,1-.62.36l-1.33.07C46.53,49.2,46.13,49.21,45.91,49.21Zm46.79.15a15.87,15.87,0,0,1-6.39-1.22A9.29,9.29,0,0,1,82,44.26a13.63,13.63,0,0,1-1.56-6.95A16.6,16.6,0,0,1,82,29.89,11.49,11.49,0,0,1,86.28,25a12.79,12.79,0,0,1,12.88,0,11.57,11.57,0,0,1,4.34,4.85A16.6,16.6,0,0,1,105,37.31a13.52,13.52,0,0,1-1.57,6.95,9.24,9.24,0,0,1-4.34,3.88A16,16,0,0,1,92.7,49.36Zm0-4.81a7.45,7.45,0,0,0,3.34-.73,5.2,5.2,0,0,0,2.37-2.38A9.38,9.38,0,0,0,99.33,37a11.65,11.65,0,0,0-.87-4.69,7.33,7.33,0,0,0-2.32-3.11,5.5,5.5,0,0,0-3.4-1.11,5.56,5.56,0,0,0-3.42,1.11A7.19,7.19,0,0,0,87,32.33,12,12,0,0,0,86.15,37,9.38,9.38,0,0,0,87,41.44a5.23,5.23,0,0,0,2.36,2.38A7.46,7.46,0,0,0,92.74,44.55Zm34.68,4.66c-.25,0-.58,0-1,0s-.8-.06-1.14-.1a1.37,1.37,0,0,1-1.06-1q-.61-2-1.27-4.77t-1.26-5.84c-.4-2.07-.77-4.21-1.13-6.4s-.63-4.37-.85-6.5c-.07-.61.14-.94.66-1a9.36,9.36,0,0,1,1.21-.12l1.11,0,1,0a11.11,11.11,0,0,1,1.16.09.92.92,0,0,1,.84,1c0,.95.14,2,.29,3.14s.31,2.25.47,3.33.33,2,.48,2.85a37.71,37.71,0,0,0,.61,3.75c.22,1,.49,1.42.8,1.42s.46-.24.64-.73a13.08,13.08,0,0,0,.53-1.85l.51-2.29c.27-.9.58-1.92.93-3s.68-2.15,1-3.07A7.75,7.75,0,0,1,133,25.65a2.1,2.1,0,0,1,1.75-.79,2.13,2.13,0,0,1,1.79.79,7.15,7.15,0,0,1,1.09,2.42c.29.94.61,2,1,3.1s.66,2.12.9,3,.37,1.56.52,2.3a12,12,0,0,0,.53,1.84c.19.49.41.73.65.73s.59-.44.81-1.31a35.22,35.22,0,0,0,.62-3.75c.14-.82.31-1.78.49-2.87s.33-2.22.46-3.37a31.87,31.87,0,0,0,.24-3.19.94.94,0,0,1,.92-1,9.22,9.22,0,0,1,1.19-.12l1,0,1.06,0a9.48,9.48,0,0,1,1.24.12c.51.08.72.41.65,1-.22,2.13-.5,4.31-.83,6.52s-.71,4.35-1.13,6.46-.84,4-1.28,5.85-.85,3.38-1.24,4.72a1.32,1.32,0,0,1-1.08.94l-1.14.07c-.41,0-.74,0-1,0s-.65,0-1.07,0-.9-.06-1.41-.1a3.76,3.76,0,0,1-1.11-.27,1.29,1.29,0,0,1-.59-.9c-.1-.53-.23-1.21-.39-2s-.32-1.7-.47-2.61-.31-1.73-.46-2.46c-.19-.95-.38-1.84-.57-2.69a15.36,15.36,0,0,0-.61-2.07c-.21-.53-.46-.8-.75-.8s-.51.27-.74.8a11.05,11.05,0,0,0-.62,2.07l-.57,2.69-.45,2.55q-.24,1.35-.48,2.55c-.15.8-.28,1.47-.4,2a1.15,1.15,0,0,1-.59.88,5.56,5.56,0,0,1-1.13.29c-.49.06-.93.11-1.33.12Z" transform="translate(-1.61 -0.78)"/><path class="cls-65" d="M18.05,49.32a16.51,16.51,0,0,1-6.56-1.23A9.77,9.77,0,0,1,7,44.19a13.08,13.08,0,0,1-1.63-6.92A15.88,15.88,0,0,1,7,29.86,11.76,11.76,0,0,1,11.36,25a12.36,12.36,0,0,1,6.5-1.71,17.42,17.42,0,0,1,4.4.57A19.34,19.34,0,0,1,26,25.19a1.21,1.21,0,0,1,.52,1.21c0,.17,0,.5-.06,1s-.09,1-.13,1.64-.06,1.18-.1,1.69-.06.85-.09,1a.64.64,0,0,1-.56.67.77.77,0,0,1-.81-.52A8.31,8.31,0,0,0,22.17,29a7.59,7.59,0,0,0-4.39-1.12A6.06,6.06,0,0,0,14.32,29a7.12,7.12,0,0,0-2.48,3.09A12.3,12.3,0,0,0,11,37a9,9,0,0,0,1,4.46,5.65,5.65,0,0,0,2.59,2.4,8.52,8.52,0,0,0,3.56.73,10.28,10.28,0,0,0,4.69-1,7,7,0,0,0,3.08-3.19.78.78,0,0,1,.9-.54c.4.07.61.36.64.87,0,1,.09,2,.13,2.94s.09,2,.12,3a1.09,1.09,0,0,1-.16.71,1.76,1.76,0,0,1-.48.5,15.88,15.88,0,0,1-2.65.79,32.58,32.58,0,0,1-3.31.5A28.84,28.84,0,0,1,18.05,49.32Z" transform="translate(-1.61 -0.78)"/><path class="cls-65" d="M45.92,49.21c-.25,0-.58,0-1,0l-1.17-.1a1.22,1.22,0,0,1-.64-.32.9.9,0,0,1-.27-.71c0-2.11,0-4.26,0-6.45s.06-4.34.1-6.44.13-4,.21-5.88.2-3.4.31-4.77a1,1,0,0,1,.92-.91,6.82,6.82,0,0,1,.87-.13l.77,0c.31,0,.64,0,1,0s.72.06,1,.11c.63.12.92.45.87,1-.1,1-.19,2.09-.27,3.16s-.13,2.29-.13,3.65a2,2,0,0,0,1,1.94,7.48,7.48,0,0,0,2.61.54c.48,0,1.09,0,1.81,0s1.34,0,1.83,0a8.27,8.27,0,0,0,2.71-.54,1.91,1.91,0,0,0,1.09-1.94c0-1.36-.06-2.58-.15-3.65s-.18-2.14-.27-3.19a1,1,0,0,1,.87-1,10.1,10.1,0,0,1,1.13-.1l1,0,.73,0a7.76,7.76,0,0,1,.87.1c.59.12.88.43.9.94.12,1.37.23,2.95.31,4.77s.15,3.78.21,5.88.11,4.25.14,6.46,0,4.36,0,6.47a.89.89,0,0,1-.3.71,1.36,1.36,0,0,1-.66.32l-1.21.1c-.41,0-.73,0-1,0s-.6,0-1.17,0l-1.29-.06a1.18,1.18,0,0,1-.64-.38A.84.84,0,0,1,58.9,48c.17-1.22.32-2.42.44-3.6s.18-2.36.18-3.5a1.87,1.87,0,0,0-1-1.86,6.77,6.77,0,0,0-2.66-.52l-1.88,0-1.85,0a6.26,6.26,0,0,0-2.57.52,1.91,1.91,0,0,0-.91,1.86c0,1.11,0,2.27.14,3.48s.26,2.4.44,3.62a.9.9,0,0,1-.19.75,1.09,1.09,0,0,1-.62.38l-1.33.06C46.51,49.2,46.13,49.21,45.92,49.21Z" transform="translate(-1.61 -0.78)"/><path class="cls-65" d="M92.71,49.36a15.87,15.87,0,0,1-6.39-1.21A9.24,9.24,0,0,1,82,44.27a13.63,13.63,0,0,1-1.56-7,16.57,16.57,0,0,1,1.54-7.42A11.79,11.79,0,0,1,86.28,25a12.83,12.83,0,0,1,12.87,0,11.63,11.63,0,0,1,4.33,4.88,16.31,16.31,0,0,1,1.57,7.42,13.52,13.52,0,0,1-1.57,7,9.26,9.26,0,0,1-4.35,3.88A16,16,0,0,1,92.71,49.36Zm0-4.82a7.6,7.6,0,0,0,3.36-.72,5.3,5.3,0,0,0,2.37-2.38A9.35,9.35,0,0,0,99.34,37a11.88,11.88,0,0,0-.86-4.7,7.35,7.35,0,0,0-2.33-3.11,5.85,5.85,0,0,0-6.83,0A7.37,7.37,0,0,0,87,32.32a12.26,12.26,0,0,0-.83,4.7A9.35,9.35,0,0,0,87,41.44a5.31,5.31,0,0,0,2.35,2.38A7.62,7.62,0,0,0,92.73,44.54Z" transform="translate(-1.61 -0.78)"/><path class="cls-65" d="M127.41,49.21c-.24,0-.57,0-1,0s-.8-.06-1.14-.1a1.36,1.36,0,0,1-1-.94c-.41-1.36-.85-3-1.29-4.77s-.85-3.76-1.25-5.84-.78-4.22-1.12-6.41-.64-4.36-.86-6.5c-.07-.61.15-.95.65-1a9.15,9.15,0,0,1,1.21-.13l1.12,0,1,0c.39,0,.78,0,1.17.08a.93.93,0,0,1,.83,1c0,.94.15,2,.29,3.14s.32,2.25.48,3.33.32,2,.48,2.86c.19,1.54.4,2.79.61,3.75s.48,1.42.81,1.42.44-.24.62-.73a11.2,11.2,0,0,0,.54-1.86c.17-.76.34-1.53.5-2.31l.94-3c.35-1.14.67-2.17,1-3.08A7.5,7.5,0,0,1,133,25.65a2.09,2.09,0,0,1,1.75-.79,2.15,2.15,0,0,1,1.79.79,7,7,0,0,1,1.08,2.42l1,3.1c.36,1.11.65,2.11.89,3s.37,1.58.53,2.33a11.2,11.2,0,0,0,.54,1.84c.19.49.4.73.64.73s.59-.44.82-1.32a35.22,35.22,0,0,0,.62-3.75l.48-2.87c.18-1.1.33-2.22.46-3.38s.22-2.21.25-3.18a.92.92,0,0,1,.91-1,9.41,9.41,0,0,1,1.19-.13l1,0,1.07,0a9.78,9.78,0,0,1,1.25.13c.5.07.71.41.64,1-.22,2.14-.51,4.31-.85,6.52s-.71,4.36-1.13,6.46-.83,4-1.27,5.85-.84,3.38-1.23,4.71a1.39,1.39,0,0,1-1.08,1l-1.15.06c-.4,0-.74,0-1,0s-.65,0-1.08,0l-1.4-.1a3.52,3.52,0,0,1-1.12-.28,1.18,1.18,0,0,1-.58-.89c-.1-.53-.23-1.2-.4-2s-.31-1.7-.48-2.61-.3-1.74-.44-2.48c-.2-.94-.39-1.83-.58-2.68a17.76,17.76,0,0,0-.6-2.07q-.32-.81-.75-.81T134,36a11.36,11.36,0,0,0-.61,2.07c-.18.85-.37,1.74-.56,2.68s-.31,1.67-.48,2.57-.31,1.74-.46,2.54-.29,1.47-.42,2a1.08,1.08,0,0,1-.58.87,4.49,4.49,0,0,1-1.12.3c-.49.06-.94.1-1.34.12Z" transform="translate(-1.61 -0.78)"/></svg>